<?xml version="1.0" encoding="utf-8"?>
<!-- Generator: Adobe Illustrator 16.0.0, SVG Export Plug-In . SVG Version: 6.00 Build 0)  -->
<!DOCTYPE svg PUBLIC "-//W3C//DTD SVG 1.1//EN" "http://www.w3.org/Graphics/SVG/1.1/DTD/svg11.dtd">
<svg version="1.1" id="Layer_1" xmlns="http://www.w3.org/2000/svg" xmlns:xlink="http://www.w3.org/1999/xlink" x="0px" y="0px"
	 width="128px" height="128px" viewBox="0 0 128 128" style="enable-background:new 0 0 128 128;" xml:space="preserve">
<style type="text/css">
<![CDATA[
	.st0{fill:none;stroke:#231F20;stroke-width:8;stroke-miterlimit:10;}
	.st1{fill:none;stroke:#231F20;stroke-width:8;stroke-linecap:round;stroke-linejoin:round;stroke-miterlimit:10;}
	.st2{fill:#FFFFFF;stroke:#231F20;stroke-width:8;stroke-linecap:round;stroke-linejoin:round;stroke-miterlimit:10;}
	.st3{display:inline;fill:none;stroke:#231F20;stroke-width:8;stroke-linecap:round;stroke-linejoin:round;stroke-miterlimit:10;}
	
		.st4{display:inline;fill:#FFFFFF;stroke:#231F20;stroke-width:8;stroke-linecap:round;stroke-linejoin:round;stroke-miterlimit:10;}
	.st5{fill:#FFFFFF;stroke:#231F20;stroke-width:8;stroke-miterlimit:10;}
	.st6{display:inline;}
	.st7{display:none;}
]]>
</style>
<g class="st7">
	<g class="st6">
		<path class="st1" d="M103.6,68.2C99.7,71.1,95,72,90,72c-5.2,0-10-0.5-13.9-3.6c-20.2,7.3-35,31.6-35,59.6c0,34,96.9,34,96.9,0
			C138,101,123.5,75.7,103.6,68.2z"/>
		<ellipse class="st0" cx="90" cy="40.6" rx="24.8" ry="24.6"/>
	</g>
	<g class="st6">
		<path class="st2" d="M52.5,99.1c-3.8,2.9-8.5,3.8-13.6,3.8c-5.2,0-10-0.5-13.9-3.5C4.8,106.7-10,131-10,159c0,33,96.9,33,96.9,0
			C86.9,132,72.4,106.6,52.5,99.1z"/>
		<ellipse class="st5" cx="38.9" cy="71.4" rx="24.8" ry="24.6"/>
	</g>
</g>
<g class="st7">
	<rect x="4" y="34" class="st4" width="120" height="75"/>
	<rect x="51" y="19" class="st4" width="28" height="15"/>
	<line class="st4" x1="24" y1="34" x2="24" y2="104"/>
	<line class="st4" x1="107" y1="34" x2="107" y2="104"/>
</g>
<g class="st7">
	<polygon class="st3" points="9,109 108,109 108,70 119,19 47.8,19 9,71 	"/>
	<polygon class="st3" points="57.8,34 100.8,34 91.3,73 30.8,73 	"/>
	<line class="st3" x1="78" y1="90" x2="94" y2="90"/>
</g>
<g class="st7">
	<line class="st3" x1="19" y1="19" x2="19" y2="109"/>
	<line class="st3" x1="64" y1="19" x2="64" y2="108"/>
	<polyline class="st3" points="109,19 109,65 21,65 	"/>
</g>
<g>
	<line class="st2" x1="64" y1="4" x2="64" y2="124"/>
	<polyline class="st1" points="46,11 64,25 82,11 	"/>
	<polyline class="st1" points="82,117 64,103 46,117 	"/>
</g>
<g>
	<line class="st2" x1="12" y1="34" x2="116" y2="94"/>
	<polyline class="st1" points="9.1,53.1 30.2,44.5 27.1,21.9 	"/>
	<polyline class="st1" points="118.9,74.9 97.8,83.5 100.9,106.1 	"/>
</g>
<g>
	<line class="st2" x1="116" y1="34" x2="12" y2="94"/>
	<polyline class="st1" points="100.9,21.9 97.8,44.5 118.9,53.1 	"/>
	<polyline class="st1" points="27.1,106.1 30.2,83.5 9.1,74.9 	"/>
</g>
</svg>
