<?xml version="1.0" encoding="utf-8"?>
<!-- Generator: Adobe Illustrator 16.0.0, SVG Export Plug-In . SVG Version: 6.00 Build 0)  -->
<!DOCTYPE svg PUBLIC "-//W3C//DTD SVG 1.1//EN" "http://www.w3.org/Graphics/SVG/1.1/DTD/svg11.dtd">
<svg version="1.1" id="Layer_1" xmlns="http://www.w3.org/2000/svg" xmlns:xlink="http://www.w3.org/1999/xlink" x="0px" y="0px"
	 width="128px" height="128px" viewBox="0 0 128 128" style="enable-background:new 0 0 128 128;" xml:space="preserve">
<style type="text/css">
<![CDATA[
	.st0{fill:none;stroke:#231F20;stroke-width:4;stroke-linecap:round;stroke-linejoin:round;stroke-miterlimit:10;}
	.st1{fill:#FFFFFF;stroke:#231F20;stroke-width:4;stroke-linecap:round;stroke-linejoin:round;stroke-miterlimit:10;}
	.st2{fill:#FFFFFF;stroke:#231F20;stroke-width:8;stroke-linecap:round;stroke-linejoin:round;stroke-miterlimit:10;}
	.st3{display:inline;fill:none;stroke:#231F20;stroke-width:8;stroke-linecap:round;stroke-linejoin:round;stroke-miterlimit:10;}
	.st4{fill:#FFFFFF;stroke:#231F20;stroke-width:4;stroke-miterlimit:10;}
	.st5{display:inline;}
	.st6{display:none;}
	.st7{fill:none;stroke:#231F20;stroke-width:4;stroke-miterlimit:10;}
]]>
</style>
<g class="st6">
	<g class="st5">
		<path class="st0" d="M107,66c-3.8,3-8.5,4.4-13.6,4.4c-5.2,0-10-1.3-13.9-4.4c-20.2,7.3-35,31.1-35,59.1c0,34,96.8,34,96.8,0
			C141.4,98,126.9,73.5,107,66z"/>
		<circle class="st7" cx="93.4" cy="39.3" r="24.7"/>
	</g>
	<g class="st5">
		<path class="st1" d="M56,97c-3.8,3-8.5,4.4-13.6,4.4c-5.2,0-10-1.3-13.9-4.4c-20.2,7.3-35,31.1-35,59.1c0,34,96.8,34,96.8,0
			C90.4,129,75.9,104.5,56,97z"/>
		<circle class="st4" cx="42.4" cy="70.3" r="24.7"/>
	</g>
</g>
<g>
	<rect x="4" y="34" class="st2" width="120" height="75"/>
	<rect x="51" y="19" class="st2" width="28" height="15"/>
	<line class="st2" x1="24" y1="34" x2="24" y2="104"/>
	<line class="st2" x1="107" y1="34" x2="107" y2="104"/>
</g>
<g class="st6">
	<polygon class="st3" points="9,109 108,109 108,70 119,19 47.8,19 9,71 	"/>
	<polygon class="st3" points="57.8,34 100.8,34 91.3,73 30.8,73 	"/>
	<line class="st3" x1="78" y1="90" x2="94" y2="90"/>
</g>
<g class="st6">
	<line class="st3" x1="19" y1="19" x2="19" y2="109"/>
	<line class="st3" x1="64" y1="19" x2="64" y2="108"/>
	<polyline class="st3" points="109,19 109,65 21,65 	"/>
</g>
</svg>
