<?xml version="1.0" encoding="UTF-8" standalone="no"?><!DOCTYPE svg PUBLIC "-//W3C//DTD SVG 1.1//EN" "http://www.w3.org/Graphics/SVG/1.1/DTD/svg11.dtd"><svg width="100%" height="100%" viewBox="0 0 180 180" version="1.1" xmlns="http://www.w3.org/2000/svg" xmlns:xlink="http://www.w3.org/1999/xlink" xml:space="preserve" xmlns:serif="http://www.serif.com/" style="fill-rule:evenodd;clip-rule:evenodd;stroke-linejoin:round;stroke-miterlimit:2;"><rect id="Artboard1" x="0" y="0" width="180" height="180" style="fill:none;"/><clipPath id="_clip1"><rect id="Artboard11" serif:id="Artboard1" x="0" y="0" width="180" height="180"/></clipPath><g clip-path="url(#_clip1)"><g><g><g><path d="M25.287,86.007c1.663,-2.994 7.985,-5.489 11.312,-4.325c0.832,0.333 1.497,1.331 1.663,2.329c0.333,1.331 0.333,2.828 0.5,4.159c1.829,0.832 2.495,-0.166 2.994,-1.497c1.331,-3.826 2.828,-7.819 4.325,-11.479c0.998,-2.329 2.329,-4.658 3.827,-6.821c2.661,-4.159 6.654,-6.321 11.645,-6.82c23.955,-2.828 47.745,-2.995 71.7,-0c5.656,0.665 9.982,3.16 12.477,7.985c2.828,5.49 4.991,11.479 7.486,17.301c0.832,1.83 0.666,1.83 2.828,1.664c0,-0.167 0.167,-0.333 0.167,-0.499c0.665,-1.997 1.164,-5.656 1.83,-5.656c3.327,-0 6.654,0.499 9.815,1.663c0.998,0.333 1.663,2.828 1.497,4.159c-0.166,0.998 -1.83,2.329 -2.994,2.495c-2.829,0.333 -5.657,0.167 -8.485,0.333c-0.831,0 -1.83,0.167 -2.994,0.998c0.832,0.832 1.663,1.83 2.662,2.496c2.828,2.162 5.988,3.992 8.65,6.321c1.165,0.998 2.329,2.662 2.329,4.159c0.499,8.651 0.832,17.468 0.832,26.119c0,4.658 -0.333,9.316 -0.832,13.974c-0.499,3.992 -1.331,4.491 -5.157,4.491c-6.488,0 -13.142,0.499 -19.63,0.333c-6.155,0 -12.311,-0.832 -18.466,-0.832c-19.131,-0.166 -38.096,-0.831 -57.227,0.167c-12.145,0.665 -24.289,-0.333 -36.433,0.166c-3.826,0.166 -4.658,-0.499 -5.157,-4.325c-0.333,-1.997 -0.333,-4.159 -0.499,-6.156c-0.166,-2.495 -0.333,-4.99 -0.665,-7.486l-0,-19.131c0.166,-0.832 0.499,-1.83 0.499,-2.662c-0.167,-5.323 1.83,-9.316 6.654,-11.811c1.83,-0.998 3.327,-2.329 5.157,-3.494c0.998,-0.665 2.163,-1.164 3.161,-1.83c-0.333,-0.499 -0.666,-0.998 -0.832,-1.497c-1.164,0 -2.163,-0.166 -3.327,0c-3.993,0.499 -7.985,0.666 -11.146,-2.495c-0.166,-0.998 -0.166,-1.664 -0.166,-2.496Zm72.532,1.498c15.638,0.332 31.774,0.665 47.745,0.998c2.495,-0 2.994,-0.832 2.495,-2.995c-1.331,-5.656 -3.493,-10.979 -7.153,-15.804c-1.664,-2.329 -3.827,-3.826 -6.821,-3.992c-8.152,-0.666 -16.469,-1.664 -24.621,-1.997c-16.303,-0.665 -32.44,-0.332 -48.577,1.83c-2.994,0.333 -5.157,1.83 -6.987,4.326c-3.327,4.658 -5.656,9.648 -6.821,15.305c-0.665,2.994 -0.332,3.327 2.662,3.327c15.971,-0.333 31.775,-0.666 48.078,-0.998Zm-0.499,47.578l26.784,0c3.327,0 6.321,-0.998 7.985,-3.826c0.832,-1.331 1.164,-3.66 0.499,-4.824c-2.163,-3.328 -4.991,-5.989 -9.316,-6.655c-14.973,-2.329 -30.111,-2.994 -45.083,-0.832c-5.49,0.832 -11.313,0.832 -14.973,6.322c-1.663,2.495 -1.996,4.492 0.167,6.821c1.996,2.162 4.658,3.161 7.486,3.161c8.817,-0.167 17.634,-0.167 26.451,-0.167Zm-66.544,-32.939c0,2.163 -0.166,3.826 0,5.49c0.333,4.159 5.49,7.486 9.483,6.488c2.162,-0.499 4.658,-0.832 6.82,-0.499c5.324,0.832 10.481,0.832 15.638,-1.996c-9.482,-6.987 -20.129,-9.15 -31.941,-9.483Zm101.313,9.649c7.486,2.662 7.486,2.662 14.14,1.996c2.163,-0.166 4.658,-1.164 6.322,-0.332c3.161,1.497 5.822,0.166 8.65,-0.666c0.999,-0.333 2.329,-1.663 2.496,-2.662c0.499,-2.495 0.333,-4.99 0.499,-7.818c-11.812,0.166 -22.458,2.329 -32.107,9.482Z" style="fill:#fff;fill-rule:nonzero;"/><path d="M45.749,151.386c0.665,5.49 -0.499,6.821 -5.158,6.821l-9.316,0c-3.493,0 -4.159,-0.665 -4.824,-4.159c-0.333,-1.664 -0.333,-3.327 -0.333,-5.157c1.331,2.662 3.494,2.495 5.823,2.495c4.824,-0.166 9.316,0 13.808,0Z" style="fill:#fff;fill-rule:nonzero;"/><path d="M148.891,151.386c4.991,0 9.649,0.167 14.473,0c1.664,0 3.494,-0.831 5.157,-1.331c0,-0.166 0,0.167 0,0.666c-0.166,6.987 -0.832,7.486 -7.819,7.486l-6.155,0c-4.991,0 -5.989,-0.998 -5.656,-6.821Z" style="fill:#fff;fill-rule:nonzero;"/></g></g><path d="M154.547,21.793c1.331,3.327 2.496,6.155 3.494,9.15c0.499,1.497 1.331,2.162 2.661,2.661c2.995,0.999 5.823,2.163 9.15,3.494c-3.327,1.331 -6.322,2.495 -9.316,3.66c-1.164,0.499 -1.996,1.164 -2.329,2.329c-0.998,2.994 -2.329,5.989 -3.494,9.316c-0.665,-1.83 -1.33,-3.327 -1.829,-4.824c-0.832,-1.997 -1.165,-4.492 -2.662,-5.989c-1.497,-1.498 -3.993,-1.83 -5.989,-2.662c-1.497,-0.666 -2.995,-1.165 -4.824,-1.83c3.493,-1.331 6.487,-2.662 9.648,-3.66c0.998,-0.333 1.498,-0.998 1.997,-1.996c0.831,-3.161 1.996,-6.155 3.493,-9.649Z" style="fill:#fff;fill-rule:nonzero;"/><path d="M30.943,72.033c-1.165,-3.161 -2.329,-5.822 -3.161,-8.484c-0.333,-1.165 -0.998,-1.83 -2.163,-2.329c-2.662,-0.998 -5.323,-1.996 -8.484,-3.327c3.161,-1.165 5.989,-2.329 8.817,-3.494c0.665,-0.332 1.331,-0.998 1.664,-1.663c1.164,-2.828 2.162,-5.657 3.493,-8.817c0.998,2.329 1.996,4.325 2.495,6.488c0.666,2.828 2.329,4.325 5.158,5.157c1.996,0.499 3.992,1.497 6.321,2.329c-2.994,1.164 -5.49,2.162 -8.151,3.161c-1.498,0.499 -2.163,1.33 -2.662,2.661c-1.165,2.828 -2.163,5.324 -3.327,8.318Z" style="fill:#fff;fill-rule:nonzero;"/><path d="M180,63.216c-4.658,1.165 -7.819,3.327 -7.985,8.318c-0.167,0 -0.333,-0.166 -0.499,-0.166c-0.499,-1.165 -0.998,-2.329 -1.331,-3.66c-0.499,-1.664 -1.331,-2.662 -2.995,-2.995c-1.164,-0.332 -2.329,-0.831 -3.992,-1.497c1.663,-0.665 2.828,-1.164 3.992,-1.497c1.664,-0.333 2.496,-1.331 2.828,-2.828c0.333,-1.165 0.832,-2.495 1.498,-4.159c0.665,1.83 1.164,3.161 1.663,4.658c0.333,1.165 0.998,1.83 2.163,2.163c1.497,0.332 2.828,0.831 4.658,1.663Z" style="fill:#fff;fill-rule:nonzero;"/><path d="M8.484,110.961c-0.998,-2.329 -1.331,-4.491 -2.661,-5.822c-1.331,-1.331 -3.494,-1.664 -5.823,-2.496c1.83,-0.665 3.161,-1.331 4.658,-1.83c0.998,-0.332 1.664,-0.831 1.996,-1.996c0.499,-1.497 0.998,-2.994 1.83,-4.824c0.666,1.497 1.165,2.661 1.498,3.992c0.499,1.497 1.33,2.662 2.994,2.995c1.164,0.332 2.495,0.831 3.993,1.497c-1.83,0.665 -3.494,1.331 -4.991,1.996c-0.666,0.333 -1.165,0.832 -1.497,1.497c-0.832,1.664 -1.331,3.161 -1.997,4.991Z" style="fill:#fff;fill-rule:nonzero;"/></g></g></svg>