<?xml version="1.0" encoding="UTF-8" standalone="no"?><!DOCTYPE svg PUBLIC "-//W3C//DTD SVG 1.1//EN" "http://www.w3.org/Graphics/SVG/1.1/DTD/svg11.dtd"><svg width="100%" height="100%" viewBox="0 0 180 180" version="1.1" xmlns="http://www.w3.org/2000/svg" xmlns:xlink="http://www.w3.org/1999/xlink" xml:space="preserve" xmlns:serif="http://www.serif.com/" style="fill-rule:evenodd;clip-rule:evenodd;stroke-linejoin:round;stroke-miterlimit:2;"><rect id="Artboard1" x="0" y="0" width="180" height="180" style="fill:none;"/><g id="Artboard11" serif:id="Artboard1"><g><path d="M72.803,24.845l11.847,0l-0,6.497c-0,11.847 3.248,17.006 10.891,17.197c7.835,0 11.083,-5.159 11.083,-17.388l0,-5.924c8.026,-1.337 16.242,4.777 16.624,13.758c0.765,17.389 0.191,34.586 0.191,52.166c-2.675,-0.191 -5.35,-0.382 -8.216,-0.382l-0,-25.032l-106.815,-0l-0,63.821c-0,8.217 4.203,12.421 12.611,12.421l59.427,-0c8.025,-0 8.025,-0 11.274,8.216c-1.338,0.191 -2.484,0.191 -3.631,0.191l-69.554,0c-11.847,0 -18.344,-6.687 -18.535,-18.344l0,-89.808c0,-9.937 6.497,-17.198 15.287,-17.389c0.382,0 0.764,0.191 1.528,0.191l0,11.656c0.191,6.879 4.586,11.656 10.892,11.656c6.497,0.191 11.083,-4.777 11.274,-11.847l-0,-12.038l11.847,-0l0,12.038c0.191,6.688 4.586,11.656 10.892,11.656c6.497,0 11.083,-4.777 11.083,-11.847l-0,-11.465Z" style="fill:#fff;fill-rule:nonzero;"/><path d="M35.541,30.769c0,2.484 0.191,4.777 0,7.261c-0.382,4.012 -3.63,7.07 -7.643,7.07c-4.013,-0 -7.261,-3.058 -7.452,-7.261c-0.191,-4.777 -0.191,-9.555 -0,-14.332c0.191,-4.203 3.439,-7.07 7.452,-7.261c4.204,0 7.452,3.058 7.643,7.453c0.191,2.293 0,4.777 0,7.07Z" style="fill:#fff;fill-rule:nonzero;"/><path d="M54.268,30.386c-0,-2.484 -0.192,-4.777 -0,-7.261c0.382,-4.012 3.821,-7.07 7.643,-6.879c3.821,0 7.07,2.867 7.261,6.879c0.191,5.159 0.191,10.128 -0,15.287c-0.191,3.822 -3.631,6.688 -7.452,6.688c-4.013,-0 -7.261,-2.866 -7.644,-7.07c0,-2.675 0.192,-5.16 0.192,-7.644Z" style="fill:#fff;fill-rule:nonzero;"/><path d="M103.376,30.769c-0,2.484 0.191,4.777 -0,7.261c-0.382,4.204 -3.631,7.07 -7.644,7.07c-4.012,-0 -7.261,-3.058 -7.452,-7.07c-0.191,-4.777 -0.191,-9.554 0,-14.331c0.191,-4.204 3.44,-7.262 7.452,-7.262c4.204,-0.191 7.453,3.058 7.835,7.262c-0.191,2.293 -0.191,4.585 -0.191,7.07Z" style="fill:#fff;fill-rule:nonzero;"/><g><path d="M93.057,98.412c-0.573,-1.147 -1.337,-2.484 -1.911,-3.631c-0.573,-1.146 -1.146,-2.293 -1.719,-3.439c-1.911,-3.822 -0.765,-8.026 3.057,-10.128c16.815,-8.789 33.631,-17.579 50.446,-26.178c0.764,-0.382 1.529,-0.764 2.293,-1.146c3.439,-1.72 7.643,-0.383 9.554,3.057c3.631,6.688 7.07,13.567 10.51,20.255c-0,-0 -0,0.191 0.191,0.382c-0.191,0.191 -0.382,0.191 -0.574,0.382c-8.598,4.395 -17.006,8.79 -25.605,13.376c-0.382,0.191 -0.764,0.191 -1.146,0.191l-32.102,-0c-4.204,-0 -8.026,1.337 -10.892,4.586c-0.764,0.382 -1.337,1.337 -2.102,2.293Z" style="fill:#fff;fill-rule:nonzero;"/><path d="M114.268,163.762l-30.574,0c-1.337,0 -2.293,-0.955 -2.484,-2.293l0,-20.446c0,-1.91 0.573,-2.675 2.484,-3.248c0.382,-0.191 0.382,-0.382 0.382,-0.573c0,-1.911 -0.191,-3.822 0,-5.542c0.383,-6.114 3.631,-10.318 9.172,-12.802c1.911,-0.765 3.822,-1.338 5.924,-1.338c3.439,0.191 6.497,1.147 9.172,3.249c2.866,2.484 4.968,5.35 5.35,9.172c0.191,2.293 0.191,4.394 0.191,6.687c0,0.956 0,0.956 0.956,1.338c1.146,0.382 1.72,0.955 1.911,2.102l-0,20.446c-0,0.573 -0,0.955 -0.191,1.528c-0.192,0.956 -1.338,1.72 -2.293,1.72Zm-15.478,-25.987l8.407,-0c0.765,-0 0.956,-0.191 0.956,-0.955l-0,-1.72c-0,-1.338 0.191,-2.866 -0.191,-4.204c-0.765,-4.777 -4.968,-8.217 -9.745,-7.834c-4.778,0.382 -8.599,4.203 -8.79,9.172l-0,4.777c-0,0.955 -0,0.955 0.955,0.955c2.866,-0.191 5.733,-0.191 8.408,-0.191Zm-1.911,17.58l-0,2.101c0.191,1.72 1.911,2.293 3.248,1.338c0.574,-0.382 0.765,-0.955 0.956,-1.72l-0,-3.63c-0,-0.765 0.191,-1.338 0.955,-1.911c1.338,-1.147 1.911,-2.484 1.72,-4.204c-0.382,-2.102 -1.72,-3.63 -4.013,-4.013c-1.911,-0.382 -4.013,0.765 -4.968,2.676c-0.955,1.91 -0.573,3.821 1.147,5.35c0.764,0.573 0.955,1.337 1.146,2.293c-0.191,0.573 -0.191,1.146 -0.191,1.72Z" style="fill:#fff;fill-rule:nonzero;"/><path d="M102.038,113.125c-1.337,-0.191 -2.675,-0.382 -4.013,-0.573l0,-10.318c0,-0.956 0.192,-2.102 0.574,-3.058c1.146,-3.057 3.439,-4.395 6.688,-4.777l66.496,0c0.765,0 1.529,0 2.293,0.191c3.249,0.573 5.542,3.058 5.924,6.497l0,42.994c0,0.764 0,1.719 -0.191,2.484c-0.764,3.439 -3.057,5.541 -6.688,5.923l-52.166,0l0,-4.012l50.637,-0c0.574,-0 1.338,-0 1.911,-0.192c1.529,-0.191 2.293,-1.146 2.484,-2.484c0.191,-0.573 0.191,-1.146 0.191,-1.528l0,-41.656c0,-2.867 -1.146,-4.204 -4.012,-4.204l-66.688,-0c-1.911,0.191 -3.058,1.529 -3.058,3.439l0,10.51c-0.382,0.191 -0.382,0.573 -0.382,0.764Z" style="fill:#fff;fill-rule:nonzero;"/><path d="M155.159,129.367c3.44,-3.439 8.408,-2.866 11.083,0c2.675,2.867 2.675,7.261 0,10.319c-2.675,2.866 -7.643,3.63 -11.083,-0c-1.911,1.911 -4.204,2.675 -6.879,2.293c-1.911,-0.382 -3.248,-1.147 -4.395,-2.675c-2.293,-2.867 -2.293,-7.262 0.383,-9.937c1.528,-1.528 3.439,-2.293 5.541,-2.293c1.911,-0.191 3.822,0.574 5.35,2.293Z" style="fill:#fff;fill-rule:nonzero;"/><path d="M108.344,114.463l47.388,-0c0.574,-0 0.765,0.191 0.765,0.764l-0,2.484l-47.389,0c-0.573,0 -0.764,-0.191 -0.764,-0.764l-0,-2.484Z" style="fill:#fff;fill-rule:nonzero;"/><path d="M128.025,108.73l0,-3.057c0,-0.191 0.192,-0.191 0.383,-0.382l27.133,-0c0.765,-0 0.765,-0 0.765,0.764l-0,1.911c-0,0.382 -0.191,0.573 -0.574,0.573l-27.133,0c-0,0.191 -0.191,0.191 -0.574,0.191Z" style="fill:#fff;fill-rule:nonzero;"/><path d="M169.49,85.036c1.147,2.102 2.102,4.013 3.249,6.115l-14.714,-0l0,-0.191c3.822,-1.911 7.644,-4.013 11.465,-5.924Z" style="fill:#fff;fill-rule:nonzero;"/><path d="M120,105.673l-0,2.866c-0,0.191 -0.382,0.382 -0.573,0.382l-9.172,0c-0.573,0 -1.338,0.192 -1.72,-0.191c-0.382,-0.191 -0.191,-0.955 -0.191,-1.528c-0,-1.529 -0,-1.529 1.529,-1.529l10.127,0Z" style="fill:#fff;fill-rule:nonzero;"/></g><g><path d="M79.873,89.24c-0,3.439 -0.956,6.306 -3.058,8.599c-2.102,2.293 -4.968,4.012 -8.598,4.968l-0,0.191c4.394,0.573 7.643,1.911 9.936,4.013c2.293,2.102 3.439,4.968 3.439,8.598c0,5.16 -1.91,9.363 -5.732,12.23c-3.822,2.866 -9.172,4.395 -16.242,4.395c-5.924,-0 -11.083,-0.956 -15.669,-2.867l0,-9.745c2.102,1.147 4.395,1.911 6.879,2.675c2.484,0.765 4.968,0.956 7.452,0.956c3.822,-0 6.497,-0.574 8.408,-1.911c1.72,-1.338 2.675,-3.44 2.675,-6.115c0,-2.484 -0.955,-4.395 -3.057,-5.35c-2.102,-1.147 -5.351,-1.529 -9.937,-1.529l-4.203,0l-0,-8.79l4.203,0c4.204,0 7.262,-0.573 9.172,-1.719c1.911,-1.147 2.867,-3.058 2.867,-5.733c-0,-4.204 -2.484,-6.114 -7.644,-6.114c-1.719,-0 -3.63,0.382 -5.35,0.955c-1.911,0.573 -3.822,1.529 -6.115,3.057l-5.35,-7.834c4.968,-3.631 10.892,-5.35 17.771,-5.35c5.541,-0 10.127,1.146 13.376,3.439c3.057,1.72 4.777,4.968 4.777,8.981Z" style="fill:#fff;fill-rule:nonzero;"/></g></g></g></svg>