<?xml version="1.0" encoding="UTF-8" standalone="no"?><!DOCTYPE svg PUBLIC "-//W3C//DTD SVG 1.1//EN" "http://www.w3.org/Graphics/SVG/1.1/DTD/svg11.dtd"><svg width="100%" height="100%" viewBox="0 0 180 180" version="1.1" xmlns="http://www.w3.org/2000/svg" xmlns:xlink="http://www.w3.org/1999/xlink" xml:space="preserve" xmlns:serif="http://www.serif.com/" style="fill-rule:evenodd;clip-rule:evenodd;stroke-linejoin:round;stroke-miterlimit:2;"><rect id="Artboard1" x="0" y="0" width="180" height="180" style="fill:none;"/><clipPath id="_clip1"><rect id="Artboard11" serif:id="Artboard1" x="0" y="0" width="180" height="180"/></clipPath><g clip-path="url(#_clip1)"><g><path d="M-0,109.817l-0,3.915c1.101,2.324 1.957,4.771 3.425,6.85c0.734,0.979 2.202,1.713 3.548,1.958c4.037,0.978 8.196,1.59 12.477,2.446c0.49,-6.85 3.548,-11.988 9.664,-14.924c3.181,-1.59 6.606,-1.835 10.154,-1.101c6.116,1.346 13.578,6.973 12.844,18.594c26.913,0.489 53.825,1.101 80.86,1.59c-1.346,-6.238 0,-11.499 4.404,-15.902c3.18,-3.181 7.217,-4.894 11.743,-4.649c10.154,0.367 16.882,8.685 15.659,19.45c2.569,-0.367 5.137,-0.734 7.584,-1.223c5.505,-1.223 6.361,-2.324 7.462,-8.196c0.489,-2.814 -0.122,-5.505 -0.856,-8.074c-0.489,-0.122 -1.468,-0.244 -2.08,0.49c-0.367,0.367 -3.67,-0.612 -3.67,-0.612c-4.77,-1.223 -5.137,-5.994 -5.137,-5.994c4.403,0.122 9.419,1.835 9.419,1.835c-1.223,-1.835 -2.936,-3.058 -5.26,-3.915c-9.175,-3.425 -18.717,-5.872 -28.381,-7.462c-5.26,-0.856 -9.908,-3.18 -14.679,-5.26c-6.728,-2.936 -13.456,-6.116 -20.185,-9.052c-11.743,-5.261 -24.098,-6.606 -36.821,-6.117c-15.78,0.612 -30.582,4.771 -45.017,10.887c-6.239,2.692 -12.722,4.282 -19.45,5.261c-4.159,0.611 -4.771,1.345 -4.771,5.504l-0,4.037c0.122,2.325 0.122,4.404 -1.713,6.361c-0.489,0.612 -0.734,2.08 -1.223,3.303Zm79.759,-31.194c13.089,1.101 25.567,2.814 35.72,10.765c-0.734,2.202 -1.468,3.915 -2.202,5.994c0.122,0 -0.122,0.123 -0.489,0c-9.42,-0.244 -18.717,-0.489 -28.136,-0.733c-0.979,-0 -1.223,-0.49 -1.468,-1.346c-0.856,-3.67 -1.835,-7.34 -2.691,-11.132c-0.123,-1.101 -0.367,-2.202 -0.734,-3.548Zm-29.482,6.361c0.367,-0.611 0.734,-1.223 1.101,-1.834c0.734,-1.224 1.591,-1.958 2.936,-2.202c5.138,-0.734 10.276,-1.591 15.414,-2.202c1.59,-0.245 3.67,-0.49 4.771,0.244c0.856,0.612 0.734,2.814 0.978,4.282c0,0.122 0,0.245 0.123,0.367c0.489,3.425 1.101,6.728 1.59,10.276c-0.612,-0 -0.979,0.122 -1.346,0.122c-8.318,-0.245 -16.637,-0.489 -24.955,-0.734c-0.979,-0 -1.223,-0.367 -1.59,-1.223c-1.101,-2.569 -0.49,-4.282 0.978,-7.096Zm-13.456,3.303c2.447,-1.223 4.893,-2.324 7.462,-3.547c1.591,-0.734 3.058,-1.346 4.649,-1.957c-2.08,3.425 -4.404,6.483 -6.606,9.541c-0.245,0.367 -0.734,0.612 -1.101,0.612c-2.324,0.122 -4.526,-0 -6.728,-0c-0.489,-2.08 0.122,-3.548 2.324,-4.649Z" style="fill:#fff;fill-rule:nonzero;"/><rect x="61.042" y="72.629" width="5.505" height="3.67" style="fill:#fff;"/><rect x="87.343" y="72.629" width="5.505" height="3.67" style="fill:#fff;"/><path d="M108.995,71.161l-65.446,0c-0.856,0 -1.59,-0.734 -1.59,-1.59c-0,-0.856 0.734,-1.59 1.59,-1.59l65.446,-0c0.857,-0 1.591,0.734 1.591,1.59c-0,0.856 -0.734,1.59 -1.591,1.59Z" style="fill:#fff;fill-rule:nonzero;"/><path d="M52.112,46.084c0.612,-3.67 1.713,-4.404 5.505,-4.404c2.936,-0 4.037,1.101 4.526,4.404l5.26,-0c3.67,-0 5.505,1.835 5.628,5.505l-0,8.807c-0,3.426 -1.958,5.26 -5.261,5.26l-21.04,0c-3.425,0 -5.383,-1.957 -5.383,-5.26l0,-9.174c0,-3.303 1.958,-5.261 5.26,-5.261c1.713,0.123 3.67,0.123 5.505,0.123Zm7.095,-0.123c0,-1.835 -1.223,-1.468 -2.202,-1.468c-0.978,0 -1.957,-0.122 -1.834,1.468l4.036,0Z" style="fill:#fff;fill-rule:nonzero;"/><rect x="84.04" y="53.791" width="15.413" height="11.988" style="fill:#fff;fill-rule:nonzero;"/><path d="M102.267,53.546l5.016,-0c0.978,-0 1.468,0.367 1.468,1.345c-0,3.181 0.122,6.362 -0,9.542c-0,0.489 -0.857,1.223 -1.346,1.346c-1.712,0.122 -3.303,0.122 -5.138,0.122l0,-12.355Z" style="fill:#fff;fill-rule:nonzero;"/><path d="M81.349,53.546l0,12.233c-1.59,-0 -3.181,0.122 -4.771,-0.123c-0.489,0 -1.223,-0.856 -1.223,-1.467c-0.122,-3.059 -0.122,-6.117 -0,-9.175c-0,-0.857 0.367,-1.59 1.346,-1.59c1.467,0.122 2.935,0.122 4.648,0.122Z" style="fill:#fff;fill-rule:nonzero;"/><path d="M49.421,124.864c0,7.34 -6.116,13.456 -13.456,13.456c-7.34,0 -13.823,-6.239 -13.701,-13.456c-0,-7.585 6.116,-13.701 13.579,-13.701c7.584,-0 13.578,6.116 13.578,13.701Zm-12.355,-5.627c-0,0.489 0.244,1.101 0.611,1.223c0.367,0.122 0.979,-0.122 1.224,-0.367c0.734,-0.489 1.345,-1.101 2.324,-2.08c-1.59,-0.611 -2.814,-1.223 -4.282,-1.835c0.123,1.346 0,2.202 0.123,3.059Zm1.712,10.153c-0.367,-0.245 -0.856,-0.367 -1.223,-0.245c-0.245,0.123 -0.489,0.612 -0.612,0.857c-0.122,0.978 0,1.957 0,3.303c1.468,-0.612 2.569,-1.101 4.527,-1.835c-1.101,-0.857 -1.835,-1.468 -2.692,-2.08Zm-11.499,-5.749c1.346,-0 2.325,0.122 3.303,-0c1.101,-0.123 1.468,-0.734 0.734,-1.591c-0.611,-0.856 -1.345,-1.59 -2.202,-2.813c-0.734,1.712 -1.223,2.813 -1.835,4.404Zm1.591,6.116c0.244,0.122 0.367,0.245 0.611,0.367c0.612,-0.734 1.224,-1.59 1.713,-2.324c0.245,-0.367 0.489,-0.857 0.367,-1.224c-0.122,-0.244 -0.734,-0.611 -1.101,-0.611c-0.979,-0.122 -1.835,-0 -3.181,-0c0.612,1.468 1.101,2.691 1.591,3.792Zm11.621,-7.829c-0.245,0.245 -0.367,0.856 -0.245,1.101c0.245,0.367 0.734,0.612 1.101,0.612c0.857,0.122 1.835,-0 3.059,-0c-0.49,-1.346 -0.979,-2.569 -1.346,-3.67c-0.245,-0.123 -0.489,-0.245 -0.734,-0.367c-0.734,0.734 -1.346,1.468 -1.835,2.324Zm3.915,4.037l-3.303,-0c-0.367,-0 -0.857,0.244 -0.979,0.489c-0.122,0.367 0.122,0.856 0.367,1.223c0.489,0.734 1.101,1.468 1.713,2.202c0.244,-0.122 0.489,-0.122 0.734,-0.244c0.489,-1.101 0.978,-2.202 1.468,-3.67Zm-14.068,-7.952c1.101,0.979 1.835,1.591 2.691,2.202c0.979,0.734 1.468,0.367 1.713,-0.734c0.122,-0.978 -0,-1.957 -0,-3.425c-1.591,0.734 -2.692,1.223 -4.404,1.957Zm4.281,15.414c0,-1.346 0.123,-2.447 0,-3.425c-0.122,-1.101 -0.734,-1.346 -1.712,-0.612c-0.734,0.612 -1.468,1.223 -2.569,2.202c1.712,0.612 2.813,1.101 4.281,1.835Z" style="fill:#fff;fill-rule:nonzero;"/><path d="M162.331,124.986c0,7.34 -6.116,13.334 -13.579,13.334c-7.339,0 -13.7,-6.239 -13.578,-13.456c0.122,-7.585 6.116,-13.701 13.701,-13.579c7.584,0 13.578,6.117 13.456,13.701Zm-12.233,-5.382c0.122,1.101 0.734,1.345 1.59,0.611c0.734,-0.611 1.468,-1.345 2.447,-2.324c-1.468,-0.612 -2.569,-1.101 -4.159,-1.835c-0,1.59 -0,2.569 0.122,3.548Zm5.505,-0.367c-0.979,1.101 -1.713,1.835 -2.324,2.691c-0.612,0.856 -0.49,1.59 0.734,1.59c0.978,0.123 1.957,0 3.303,0c-0.49,-1.345 -0.979,-2.446 -1.713,-4.281Zm1.835,6.728l-3.181,-0c-0.367,-0 -0.978,0.244 -1.101,0.611c-0.122,0.245 0.123,0.857 0.245,1.224c0.489,0.734 1.223,1.468 2.202,2.569c0.734,-1.835 1.223,-2.936 1.835,-4.404Zm-11.621,-5.872c0.367,0.245 0.856,0.367 1.223,0.245c0.245,-0.123 0.489,-0.612 0.612,-0.857c0.122,-0.978 -0,-1.957 -0,-3.303c-1.468,0.612 -2.569,1.101 -4.282,1.713c1.101,1.101 1.713,1.713 2.447,2.202Zm-5.628,3.548c1.346,-0 2.325,0.122 3.426,-0c1.101,-0.123 1.468,-0.734 0.734,-1.591c-0.612,-0.734 -1.346,-1.468 -2.325,-2.569c-0.734,1.468 -1.223,2.692 -1.835,4.16Zm1.835,6.605c0.979,-1.101 1.713,-1.835 2.447,-2.691c0.612,-0.856 0.245,-1.468 -0.734,-1.468c-0.979,-0.122 -1.957,0 -3.425,0c0.489,1.346 0.978,2.569 1.712,4.159Zm12.233,1.346c-1.101,-0.979 -1.835,-1.59 -2.569,-2.324c-0.856,-0.734 -1.468,-0.49 -1.59,0.611c-0.122,0.979 0,1.958 0,3.426c1.346,-0.49 2.569,-0.979 4.159,-1.713Zm-6.605,-1.713c-0.123,-0.978 -0.734,-1.345 -1.591,-0.611c-0.734,0.611 -1.468,1.345 -2.446,2.324c1.345,0.612 2.569,1.101 4.037,1.713l-0,-3.426Z" style="fill:#fff;fill-rule:nonzero;"/></g></g></svg>