<svg width="72" height="70" viewBox="0 0 72 70" fill="none" xmlns="http://www.w3.org/2000/svg">
<g clip-path="url(#clip0_284_21)">
<path d="M63.8899 11.6055H48.0327V7.4055C48.0296 5.44059 47.2577 3.557 45.8861 2.16733C44.5144 0.777654 42.6548 -0.00481059 40.7146 -0.00866699H30.96C29.0198 -0.00558372 27.1599 0.776139 25.7877 2.16527C24.4155 3.55439 23.6429 5.43768 23.6391 7.40258V11.6026H7.78178C5.71614 11.6034 3.73536 12.4349 2.275 13.9144C0.81464 15.3939 -0.00573691 17.4002 -0.00573677 19.4922V58.1672C-0.00611523 59.2018 0.194833 60.2264 0.585624 61.1824C0.976416 62.1383 1.54939 63.0069 2.2718 63.7386C2.99421 64.4702 3.8519 65.0504 4.79585 65.4462C5.7398 65.842 6.7515 66.0455 7.77314 66.0451H10.0656C10.0253 66.5901 10.0966 67.1376 10.275 67.6534C10.4535 68.1692 10.7352 68.642 11.1026 69.0423C11.47 69.4426 11.9152 69.7617 12.4101 69.9796C12.905 70.1974 13.439 70.3094 13.9787 70.3084C14.5183 70.3074 15.0519 70.1934 15.5461 69.9737C16.0402 69.754 16.4841 69.4333 16.8501 69.0316C17.216 68.6299 17.4961 68.156 17.6727 67.6396C17.8492 67.1232 17.9185 66.5753 17.8762 66.0305V66.0451H53.7495C53.7495 67.094 54.1609 68.1 54.8933 68.8417C55.6257 69.5834 56.619 70.0001 57.6547 70.0001C58.6905 70.0001 59.6838 69.5834 60.4162 68.8417C61.1486 68.1 61.56 67.094 61.56 66.0451H63.8525C64.8741 66.0455 65.8858 65.842 66.8298 65.4462C67.7737 65.0504 68.6314 64.4702 69.3538 63.7386C70.0763 63.0069 70.6492 62.1383 71.04 61.1824C71.4308 60.2264 71.6318 59.2018 71.6314 58.1672V19.428C71.6314 17.3526 70.8173 15.3621 69.3682 13.8946C67.9191 12.427 65.9537 11.6026 63.9043 11.6026H63.8842L63.8899 11.6055ZM29.0851 7.4055C29.0851 6.3555 29.9261 5.50383 30.9629 5.50383H40.7146C41.7514 5.50383 42.5923 6.3555 42.5923 7.4055V11.6055H29.1053V7.4055H29.0851ZM16.0474 57.6305C14.7937 57.6305 13.5652 57.254 12.5228 56.5486C11.4804 55.8432 10.6679 54.8406 10.1881 53.6676C9.70837 52.4946 9.58284 51.2038 9.82742 49.9585C10.072 48.7132 10.6757 47.5694 11.5622 46.6716C12.4487 45.7738 13.5782 45.1624 14.8078 44.9147C16.0375 44.667 17.312 44.7941 18.4703 45.28C19.6286 45.7659 20.6186 46.5887 21.3151 47.6444C22.0116 48.7001 22.3834 49.9412 22.3834 51.2109C22.3834 54.7547 19.5466 57.6276 16.0474 57.6305ZM26.3549 31.7305L30.5021 20.4517L41.6391 24.6518L37.4919 35.9334L26.3549 31.7305ZM44.3261 56.0438L41.5728 46.4043L62.5075 40.288L65.2608 49.9276L44.3261 56.0438Z" fill="#0F9D49"/>
</g>
<defs>
<clipPath id="clip0_284_21">
<rect width="72" height="70" fill="white"/>
</clipPath>
</defs>
</svg>
