<svg width="79" height="79" viewBox="0 0 79 79" fill="none" xmlns="http://www.w3.org/2000/svg">
<path d="M39.5 65.8334C33.3889 65.8334 27.5282 63.4058 23.2071 59.0846C18.8859 54.7635 16.4583 48.9028 16.4583 42.7917C16.4583 36.6807 18.8859 30.82 23.2071 26.4988C27.5282 22.1777 33.3889 19.7501 39.5 19.7501C45.611 19.7501 51.4717 22.1777 55.7929 26.4988C60.114 30.82 62.5416 36.6807 62.5416 42.7917C62.5416 48.9028 60.114 54.7635 55.7929 59.0846C51.4717 63.4058 45.611 65.8334 39.5 65.8334ZM39.5 13.1667C31.6429 13.1667 24.1077 16.2879 18.5519 21.8437C12.9962 27.3995 9.87498 34.9347 9.87498 42.7917C9.87498 50.6488 12.9962 58.184 18.5519 63.7398C24.1077 69.2955 31.6429 72.4167 39.5 72.4167C47.357 72.4167 54.8922 69.2955 60.448 63.7398C66.0038 58.184 69.125 50.6488 69.125 42.7917C69.125 34.9347 66.0038 27.3995 60.448 21.8437C54.8922 16.2879 47.357 13.1667 39.5 13.1667ZM41.1458 26.3334H36.2083V46.0834L51.8437 55.4647L54.3125 51.4159L41.1458 43.6146V26.3334ZM25.9383 11.1588L21.725 6.12256L6.58331 18.7955L10.8296 23.8317L25.9383 11.1588ZM72.4166 18.8284L57.275 6.12256L53.0287 11.1588L68.1704 23.8646L72.4166 18.8284Z" fill="#0F9D49"/>
</svg>
