<svg width="76" height="74" viewBox="0 0 76 74" fill="none" xmlns="http://www.w3.org/2000/svg">
<path d="M14.1758 15.0313H61.6758C62.2306 15.031 62.7849 15.0653 63.3353 15.1339C63.1488 13.8588 62.6989 12.6337 62.013 11.5325C61.327 10.4312 60.4191 9.47663 59.344 8.72626C58.2689 7.9759 57.0489 7.44529 55.7574 7.16644C54.466 6.88759 53.13 6.86626 51.8299 7.10375L12.7656 13.5975H12.7211C10.269 14.0541 8.08845 15.4049 6.62477 17.3741C8.82995 15.8469 11.4697 15.0279 14.1758 15.0313ZM61.6758 18.5H14.1758C11.6571 18.5027 9.2423 19.4781 7.4613 21.2123C5.6803 22.9464 4.67853 25.2976 4.67578 27.75V55.5C4.67853 57.9525 5.6803 60.3037 7.4613 62.0378C9.2423 63.7719 11.6571 64.7474 14.1758 64.75H61.6758C64.1945 64.7474 66.6093 63.7719 68.3903 62.0378C70.1713 60.3037 71.173 57.9525 71.1758 55.5V27.75C71.173 25.2976 70.1713 22.9464 68.3903 21.2123C66.6093 19.4781 64.1945 18.5027 61.6758 18.5ZM54.625 46.25C53.6855 46.25 52.7672 45.9788 51.986 45.4706C51.2049 44.9624 50.5961 44.2401 50.2366 43.395C49.8771 42.5498 49.783 41.6199 49.9663 40.7227C50.1495 39.8256 50.6019 39.0015 51.2662 38.3547C51.9305 37.7079 52.7769 37.2674 53.6983 37.0889C54.6197 36.9104 55.5748 37.002 56.4427 37.3521C57.3107 37.7022 58.0525 38.2949 58.5745 39.0555C59.0964 39.8161 59.375 40.7103 59.375 41.625C59.375 42.8517 58.8746 44.028 57.9838 44.8954C57.093 45.7628 55.8848 46.25 54.625 46.25Z" fill="#0F9D49"/>
<path d="M4.75 37.5059V23.125C4.75 19.993 6.53125 14.7422 12.7137 13.6047C17.9609 12.6465 23.1562 12.6465 23.1562 12.6465C23.1562 12.6465 26.5703 14.959 23.75 14.959C20.9297 14.959 21.0039 18.5 23.75 18.5C26.4961 18.5 23.75 21.8965 23.75 21.8965L12.6914 34.1094L4.75 37.5059Z" fill="#0F9D49"/>
</svg>
