<?xml version="1.0" encoding="utf-8"?>
<!-- Generator: Adobe Illustrator 16.0.0, SVG Export Plug-In . SVG Version: 6.00 Build 0)  -->
<!DOCTYPE svg PUBLIC "-//W3C//DTD SVG 1.1//EN" "http://www.w3.org/Graphics/SVG/1.1/DTD/svg11.dtd">
<svg version="1.1" id="Layer_1" xmlns="http://www.w3.org/2000/svg" xmlns:xlink="http://www.w3.org/1999/xlink" x="0px" y="0px"
	 width="128px" height="128px" viewBox="0 0 128 128" style="enable-background:new 0 0 128 128;" xml:space="preserve">
<style type="text/css">
<![CDATA[
	.st0{fill:none;stroke:#231F20;stroke-width:4;stroke-linecap:round;stroke-linejoin:round;stroke-miterlimit:10;}
	.st1{fill:none;stroke:#231F20;stroke-width:8;stroke-linecap:round;stroke-linejoin:round;stroke-miterlimit:10;}
	.st2{fill:#FFFFFF;stroke:#231F20;stroke-width:4;stroke-linecap:round;stroke-linejoin:round;stroke-miterlimit:10;}
	.st3{display:inline;fill:none;stroke:#231F20;stroke-width:4;stroke-linecap:round;stroke-linejoin:round;stroke-miterlimit:10;}
	.st4{fill:#FFFFFF;stroke:#231F20;stroke-width:4;stroke-miterlimit:10;}
	
		.st5{display:inline;fill:#FFFFFF;stroke:#231F20;stroke-width:4;stroke-linecap:round;stroke-linejoin:round;stroke-miterlimit:10;}
	.st6{display:inline;}
	.st7{display:none;}
	.st8{fill:none;stroke:#231F20;stroke-width:4;stroke-miterlimit:10;}
]]>
</style>
<g class="st7">
	<g class="st6">
		<path class="st0" d="M107,66c-3.8,3-8.5,4.4-13.6,4.4c-5.2,0-10-1.3-13.9-4.4c-20.2,7.3-35,31.1-35,59.1c0,34,96.8,34,96.8,0
			C141.4,98,126.9,73.5,107,66z"/>
		<circle class="st8" cx="93.4" cy="39.3" r="24.7"/>
	</g>
	<g class="st6">
		<path class="st2" d="M56,97c-3.8,3-8.5,4.4-13.6,4.4c-5.2,0-10-1.3-13.9-4.4c-20.2,7.3-35,31.1-35,59.1c0,34,96.8,34,96.8,0
			C90.4,129,75.9,104.5,56,97z"/>
		<circle class="st4" cx="42.4" cy="70.3" r="24.7"/>
	</g>
</g>
<g class="st7">
	<rect x="2" y="37" class="st5" width="124" height="75"/>
	<rect x="49" y="21" class="st5" width="30" height="16"/>
	<line class="st5" x1="22" y1="37" x2="22" y2="112"/>
	<line class="st5" x1="107" y1="37" x2="107" y2="112"/>
</g>
<g class="st7">
	<polygon class="st3" points="10,109 109,109 109,72 118.1,19 46.8,19 10,73 	"/>
	<polygon class="st3" points="49.8,28 107.8,28 99.3,73 19.8,73 	"/>
	<line class="st3" x1="83" y1="87" x2="99" y2="87"/>
</g>
<line class="st1" x1="19" y1="19" x2="19" y2="109"/>
<line class="st1" x1="64" y1="19" x2="64" y2="108"/>
<polyline class="st1" points="109,19 109,65 21,65 "/>
</svg>
