<?xml version="1.0" encoding="UTF-8" standalone="no"?><!DOCTYPE svg PUBLIC "-//W3C//DTD SVG 1.1//EN" "http://www.w3.org/Graphics/SVG/1.1/DTD/svg11.dtd"><svg width="100%" height="100%" viewBox="0 0 128 34" version="1.1" xmlns="http://www.w3.org/2000/svg" xmlns:xlink="http://www.w3.org/1999/xlink" xml:space="preserve" xmlns:serif="http://www.serif.com/" style="fill-rule:evenodd;clip-rule:evenodd;stroke-linejoin:round;stroke-miterlimit:2;"><rect id="logo-langkawibook" x="-0" y="0" width="128" height="33.571" style="fill:none;"/><clipPath id="_clip1"><rect id="logo-langkawibook1" serif:id="logo-langkawibook" x="-0" y="0" width="128" height="33.571"/></clipPath><g clip-path="url(#_clip1)"><g><path d="M89.546,1.249c0,-0 0.037,1.086 0.864,2.096c0,0 -0.809,-0.348 -1.414,-1.214c-0.479,0.736 -0.515,2.021 -0.515,2.021c0.497,0.773 1.877,1.535 1.877,1.535c-0.809,-0.109 -1.952,-0.726 -1.952,-0.726c-0.147,0.59 0,1.6 0,1.6c0.367,0.533 1.95,1.342 1.95,1.342c-1.159,-0.057 -1.914,-0.571 -1.914,-0.571c0.241,0.866 0.388,1.233 1.471,2.539c2.081,2.432 4.542,3.469 4.956,3.632c-0.268,0.022 -0.563,0.061 -0.872,0.116c-1.15,0.209 -2.047,0.574 -2.003,0.815c-0,0.004 0.003,0.007 0.004,0.011l-0.006,0.002c0.238,0.698 1.029,1.414 1.047,1.414c0.716,-0.018 1.489,-0.458 1.489,-0.458c-0.313,0.662 -1.158,0.864 -1.158,0.864c0.662,0.46 0.992,0.734 2.536,0.845c0.644,-0.478 0.755,-1.305 0.755,-1.305c0.202,0.827 -0.186,1.305 -0.186,1.305c0.682,-0.018 1.067,-0.24 1.453,-0.442c1.122,-0.734 1.269,-1.856 1.269,-1.856c2.956,0.429 5.479,0.357 7.335,0.024c-0.403,-0.181 -0.331,-0.421 -0.331,-0.421c0,0 0.389,0.313 0.906,0.234c0.76,-0.155 1.146,-0.284 1.712,-0.479c-0.64,-0.16 -0.912,-0.428 -0.912,-0.428c0.618,0.072 1.37,0.142 1.934,0.03c0.002,0 0.002,0 0.005,-0.002c0.812,-0.362 1.285,-0.683 1.427,-0.778c-0.755,-0 -1.122,-0.238 -1.122,-0.238c0.662,-0.054 1.471,-0.147 2.004,-0.406c0.367,-0.256 0.754,-0.623 0.754,-0.623c-6.287,0.587 -9.283,0.783 -13.676,-1.257c-6.186,-2.864 -8.596,-10.47 -8.64,-10.47c-0.367,0.256 -0.788,0.864 -1.047,1.249Zm9.888,11.5c-0.196,-0.037 -0.391,-0.064 -0.582,-0.117c-0.027,-0.006 -0.052,-0.017 -0.076,-0.027c0.086,-0.235 0.294,-0.451 0.588,-0.624c0.202,-0.12 0.437,-0.181 0.709,-0.252c0.047,-0.003 0.094,-0.012 0.162,-0.011c0.053,0 0.102,0.003 0.155,0.003c0.4,0.015 0.799,0.067 1.187,0.173l0.224,0.07c0.236,0.085 0.432,0.221 0.499,0.516c0.018,0.077 0.103,0.099 0.16,0.142c0.238,0.175 0.264,0.359 0.076,0.626c-0.077,-0.155 -0.209,-0.222 -0.367,-0.223c-0.788,-0.01 -1.433,0.307 -2.029,0.865c-0.282,-0.043 -0.536,-0.118 -0.749,-0.223c0.251,-0.021 0.483,-0.058 0.706,-0.202c-0.088,-0.032 -0.143,0.003 -0.198,0.007c-0.114,0.007 -0.226,0.017 -0.339,0.016c-0.474,-0.009 -0.702,-0.18 -0.828,-0.634c0,0 -0.001,-0.002 -0.001,-0.004c-0.002,-0.021 -0,-0.041 0.002,-0.064c0.115,0.017 0.229,0.033 0.342,0.033c0.121,-0 0.241,-0.018 0.359,-0.07Z" style="fill:url(#_Linear2);fill-rule:nonzero;"/><path d="M102.039,12.386c-0.182,-0.077 -0.306,-0.139 -0.471,-0.152c0.095,0.21 0.237,0.222 0.471,0.152Z" style="fill:url(#_Linear3);fill-rule:nonzero;"/><path d="M12.357,26.136c-0.214,0.854 -1.103,1.433 -2.149,1.433c-0.93,-0 -1.47,-0.484 -1.47,-1.238c0,-0.776 0.503,-1.124 1.508,-1.124l2.111,-0l-0,0.929Zm-1.26,-7.046c-1.74,0 -3.213,0.425 -4.837,1.181l0.948,2.206c1.103,-0.56 2.246,-0.87 3.116,-0.87c1.354,-0 2.033,0.618 2.033,1.645l-0,0.155l-2.749,-0c-2.594,0.019 -4.008,1.18 -4.008,3.156c0,1.916 1.357,3.271 3.581,3.271c1.414,-0 2.516,-0.463 3.195,-1.355l-0,1.2l3.273,0l-0,-6.813c-0.019,-2.362 -1.684,-3.776 -4.552,-3.776" style="fill:#149cd8;fill-rule:nonzero;"/><path d="M23.589,19.09c-1.548,0.019 -2.748,0.638 -3.483,1.86l-0,-1.706l-3.352,0l0,10.436l3.352,-0l-0,-5.517c0.134,-1.24 0.908,-2.11 2.129,-2.11c1.122,-0 1.838,0.754 1.838,1.975l0,5.652l3.33,-0l0,-6.582c0,-2.44 -1.511,-4.008 -3.814,-4.008" style="fill:#149cd8;fill-rule:nonzero;"/><path d="M33.492,26.698c-1.316,0 -2.208,-1.045 -2.208,-2.535c-0,-1.511 0.892,-2.557 2.208,-2.557c1.298,0 2.168,1.028 2.168,2.557c-0,1.49 -0.87,2.535 -2.168,2.535m2.168,-7.451l-0,1.276c-0.697,-0.911 -1.743,-1.414 -3.079,-1.395c-2.613,0 -4.413,1.976 -4.413,4.938c-0,3.041 1.859,5.051 4.492,5.051c1.297,0 2.321,-0.503 3,-1.392l-0,1.103c-0,1.297 -0.968,2.149 -2.576,2.149c-1.121,-0 -2.284,-0.387 -3.232,-1.046l-1.163,2.265c1.182,0.794 2.828,1.375 4.649,1.375c3.368,0 5.652,-1.878 5.652,-4.84l-0,-9.484l-3.33,-0Z" style="fill:#149cd8;fill-rule:nonzero;"/><path d="M57.644,26.136c-0.214,0.854 -1.106,1.433 -2.149,1.433c-0.93,-0 -1.473,-0.484 -1.473,-1.238c0,-0.776 0.503,-1.124 1.511,-1.124l2.111,-0l-0,0.929Zm-1.26,-7.046c-1.743,0 -3.213,0.425 -4.84,1.181l0.948,2.206c1.106,-0.56 2.247,-0.87 3.119,-0.87c1.354,-0 2.033,0.618 2.033,1.645l-0,0.155l-2.749,-0c-2.594,0.019 -4.008,1.18 -4.008,3.156c0,1.916 1.354,3.271 3.581,3.271c1.414,-0 2.516,-0.463 3.195,-1.355l-0,1.2l3.27,0l0,-6.813c-0.019,-2.362 -1.684,-3.776 -4.549,-3.776" style="fill:#149cd8;fill-rule:nonzero;"/><path d="M75.555,19.244l-2.111,7.222l-2.149,-7.222l-3.194,0l-2.089,7.222l-2.152,-7.222l-3.405,0l3.813,10.436l3.33,-0l2.051,-6.622l2.052,6.622l3.311,-0l3.816,-10.436l-3.273,0Z" style="fill:#149cd8;fill-rule:nonzero;"/><path d="M80.947,14.482c-1.027,-0 -1.762,0.735 -1.762,1.762c-0,1.046 0.735,1.781 1.762,1.781c1.027,0 1.762,-0.735 1.762,-1.781c0,-1.027 -0.735,-1.762 -1.762,-1.762" style="fill:#149cd8;fill-rule:nonzero;"/><rect x="79.263" y="19.244" width="3.33" height="10.435" style="fill:#149cd8;"/><path d="M123.403,28.487l-1.911,-3.397l-0.948,0.997l-0,2.4l-2.825,0l0,-12.119l2.825,0l-0,6.403l2.908,-3.086l3.2,-0l-3.233,3.381l3.333,5.421l-3.349,0Zm-11.754,0.098c-2.892,-0 -4.819,-1.795 -4.819,-4.508c-0,-2.711 1.927,-4.492 4.819,-4.492c2.873,-0 4.8,1.781 4.8,4.492c-0,2.713 -1.927,4.508 -4.8,4.508m-10.719,-0c-2.889,-0 -4.816,-1.795 -4.816,-4.508c-0,-2.711 1.927,-4.492 4.816,-4.492c2.876,-0 4.803,1.781 4.803,4.492c-0,2.713 -1.927,4.508 -4.803,4.508m-9.765,-0c-1.143,-0 -2.076,-0.457 -2.695,-1.273l0,1.175l-2.827,0l0,-12.119l2.827,0l0,4.476c0.619,-0.8 1.519,-1.259 2.627,-1.259c2.484,-0 4.133,1.813 4.133,4.54c-0,2.679 -1.6,4.46 -4.065,4.46m36.649,-0.751l-2.827,-4.603l2.567,-2.684c0.346,-0.362 0.444,-0.894 0.246,-1.354c-0.194,-0.459 -0.648,-0.757 -1.148,-0.757l-3.2,0c-0.346,0 -0.673,0.141 -0.911,0.392l-0.749,0.795l0,-3.255c0,-0.689 -0.557,-1.248 -1.248,-1.248l-2.825,-0c-0.692,-0 -1.248,0.559 -1.248,1.248l-0,4.071c-1.07,-1.313 -2.768,-2.103 -4.822,-2.103c-2.446,0 -4.387,1.106 -5.368,2.89c-0.978,-1.784 -2.91,-2.89 -5.351,-2.89c-2.33,0 -4.2,1.006 -5.219,2.641c-0.908,-1.635 -2.557,-2.641 -4.614,-2.641c-0.481,0 -0.943,0.068 -1.378,0.198l0,-2.166c0,-0.689 -0.56,-1.248 -1.249,-1.248l-2.827,-0c-0.689,-0 -1.248,0.559 -1.248,1.248l-0,12.119c-0,0.69 0.559,1.249 1.248,1.249l2.827,0c0.298,0 0.57,-0.102 0.784,-0.278c0.581,0.249 1.224,0.376 1.911,0.376c2.035,-0 3.668,-0.998 4.565,-2.62c1.021,1.625 2.884,2.62 5.2,2.62c2.441,-0 4.373,-1.108 5.351,-2.895c0.981,1.787 2.922,2.895 5.368,2.895c2.054,-0 3.752,-0.79 4.822,-2.106l-0,0.759c-0,0.69 0.556,1.249 1.248,1.249l2.825,0c0.691,0 1.248,-0.559 1.248,-1.249l0,-0.31l0.522,0.924c0.221,0.392 0.638,0.635 1.089,0.635l3.349,0c0.451,0 0.867,-0.243 1.089,-0.638c0.221,-0.397 0.211,-0.878 -0.027,-1.264m-16.165,-2.687c-0.632,-0 -0.727,-0.649 -0.727,-1.038c-0,-0.311 0.07,-1.035 0.727,-1.035c0.659,-0 0.711,0.792 0.711,1.035c-0,0.314 -0.071,1.038 -0.711,1.038m-0,-3.324c-1.175,0 -1.978,0.932 -1.978,2.286c-0,1.373 0.803,2.286 1.978,2.286c1.159,0 1.959,-0.913 1.959,-2.286c0,-1.354 -0.8,-2.286 -1.959,-2.286m-10.719,3.324c-0.633,-0 -0.727,-0.649 -0.727,-1.038c-0,-0.311 0.073,-1.035 0.727,-1.035c0.659,-0 0.711,0.792 0.711,1.035c-0,0.314 -0.068,1.038 -0.711,1.038m-0,-3.324c-1.176,0 -1.976,0.932 -1.976,2.286c0,1.373 0.8,2.286 1.976,2.286c1.159,0 1.962,-0.913 1.962,-2.286c0,-1.354 -0.803,-2.286 -1.962,-2.286m-10.516,3.275c-0.646,0 -0.695,-0.805 -0.695,-1.054c0,-0.173 0.032,-1.035 0.695,-1.035c0.673,0 0.727,0.792 0.727,1.035c-0,0.249 -0.054,1.054 -0.727,1.054m-0,-3.34c-1.144,-0 -1.944,0.949 -1.944,2.286c0,1.373 0.8,2.303 1.944,2.303c1.175,-0 1.975,-0.946 1.975,-2.303c0,-1.337 -0.8,-2.286 -1.975,-2.286" style="fill:#65b345;fill-rule:nonzero;"/><path d="M4.47,26.978c-0.026,-0 -0.05,-0 -0.073,-0.003c-0.29,-0.018 -0.542,-0.144 -0.756,-0.376c-0.232,-0.254 -0.347,-0.609 -0.347,-1.059l-0,-11.114l-3.294,-0l-0,11.266c-0,1.21 0.35,2.18 1.046,2.906c0.039,0.042 0.08,0.084 0.122,0.123c0.489,0.466 1.046,0.787 1.673,0.96c0.369,0.101 0.764,0.154 1.182,0.154c0.677,-0 1.207,-0.087 1.809,-0.399l-0.955,-2.509c-0.132,0.03 -0.267,0.051 -0.407,0.051" style="fill:#149cd8;fill-rule:nonzero;"/><path d="M46.316,23.263l4.195,-4.462l-3.87,-0l-3.418,3.644l0,-7.802l-3.071,0l-0,15.191l3.071,-0l0,-3.173l1.004,-1.045l2.804,4.218l3.644,-0l-4.359,-6.571Z" style="fill:#149cd8;fill-rule:nonzero;"/></g></g><defs><linearGradient id="_Linear2" x1="0" y1="0" x2="1" y2="0" gradientUnits="userSpaceOnUse" gradientTransform="matrix(24.5689,0,0,24.5689,88.3406,8.55609)"><stop offset="0" style="stop-color:#169e49;stop-opacity:1"/><stop offset="1" style="stop-color:#64b345;stop-opacity:1"/></linearGradient><linearGradient id="_Linear3" x1="0" y1="0" x2="1" y2="0" gradientUnits="userSpaceOnUse" gradientTransform="matrix(0.470779,0,0,0.470779,101.568,12.3293)"><stop offset="0" style="stop-color:#169e49;stop-opacity:1"/><stop offset="1" style="stop-color:#64b345;stop-opacity:1"/></linearGradient></defs></svg>